<svg width="190" height="57" viewBox="0 0 190 57" fill="none" xmlns="http://www.w3.org/2000/svg">
<path d="M72.8214 13.0143C71.2209 12.3744 68.6825 11.668 65.5435 11.668C57.5304 11.668 51.8875 15.9737 51.853 22.1297C51.7864 26.6715 55.8931 29.1943 58.9645 30.7087C62.1037 32.2561 63.171 33.2662 63.171 34.6455C63.139 36.7639 60.6342 37.7404 58.298 37.7404C55.0583 37.7404 53.3225 37.2371 50.6846 36.0585L49.6162 35.5531L48.4807 42.6516C50.3837 43.5254 53.8902 44.3006 57.5304 44.3346C66.0444 44.3346 71.5874 40.0954 71.6533 33.5353C71.6855 29.9356 69.5171 27.1772 64.842 24.9234C62.0041 23.4765 60.2659 22.5008 60.2659 21.0204C60.2993 19.6746 61.7361 18.2961 64.9396 18.2961C67.5777 18.2286 69.5157 18.8675 70.984 19.5069L71.7179 19.8427L72.8214 13.0143Z" fill="white" fill-opacity="0.8"/>
<path d="M43.4063 43.8643H35.292L40.3672 12.2422H48.4811L43.4063 43.8643Z" fill="white" fill-opacity="0.8"/>
<path fill-rule="evenodd" clip-rule="evenodd" d="M87.3456 12.2422H93.622L100.168 43.8638H92.6551C92.6551 43.8638 91.9198 40.2306 91.6868 39.1204H81.2687C80.9675 39.9611 79.5657 43.8638 79.5657 43.8638H71.0515L83.1044 14.8659C83.9394 12.8136 85.4101 12.2422 87.3456 12.2422ZM86.8455 23.8142C86.8455 23.8142 84.274 30.845 83.6059 32.6617H90.3504C90.0168 31.0807 88.4801 23.5113 88.4801 23.5113L87.913 20.7867C87.6743 21.4882 87.3291 22.4526 87.0961 23.1032C86.9382 23.5442 86.8318 23.8415 86.8455 23.8142Z" fill="white" fill-opacity="0.8"/>
<path d="M28.5143 12.2422L20.5678 33.8055L19.6994 29.4322L19.6987 29.4296L16.8614 14.9003C16.3942 12.8807 14.9583 12.3088 13.1887 12.2422H0.13356L0 12.8811C3.18409 13.7016 6.03198 14.8839 8.52734 16.3539L15.7596 43.8309H24.3404L37.0946 12.2422H28.5143Z" fill="white" fill-opacity="0.8"/>
<g clip-path="url(#clip0_1891_2281)">
<path d="M185.896 53.0945V53.2065H186.001C186.021 53.2068 186.04 53.2019 186.057 53.1922C186.064 53.1874 186.069 53.181 186.073 53.1735C186.077 53.166 186.078 53.1577 186.078 53.1494C186.078 53.1412 186.077 53.1331 186.073 53.1258C186.069 53.1185 186.064 53.1122 186.057 53.1077C186.04 53.0975 186.021 53.0925 186.001 53.0934H185.896V53.0945ZM186.002 53.0153C186.047 53.0125 186.091 53.0254 186.128 53.0517C186.142 53.0636 186.154 53.0788 186.161 53.096C186.169 53.1132 186.172 53.132 186.171 53.1508C186.172 53.167 186.169 53.1831 186.163 53.1981C186.157 53.2132 186.148 53.2267 186.136 53.2379C186.108 53.2622 186.073 53.2769 186.036 53.2796L186.176 53.4392H186.068L185.939 53.2807H185.898V53.4392H185.807V53.0155H186.003L186.002 53.0153ZM185.974 53.5853C186.021 53.5858 186.068 53.5762 186.112 53.5573C186.153 53.5393 186.191 53.5136 186.224 53.4815C186.256 53.4494 186.282 53.4113 186.299 53.3695C186.336 53.2807 186.336 53.181 186.299 53.0923C186.281 53.0505 186.256 53.0125 186.224 52.9803C186.191 52.9481 186.153 52.9224 186.112 52.9044C186.068 52.8865 186.021 52.8776 185.974 52.8781C185.926 52.8776 185.879 52.8865 185.834 52.9044C185.791 52.922 185.752 52.9478 185.72 52.9803C185.67 53.0311 185.637 53.0953 185.623 53.165C185.61 53.2347 185.617 53.3068 185.645 53.3723C185.662 53.4143 185.687 53.4524 185.72 53.4843C185.752 53.5167 185.791 53.5425 185.834 53.5601C185.878 53.579 185.926 53.5886 185.974 53.5881M185.974 52.7761C186.097 52.776 186.215 52.8243 186.303 52.9105C186.345 52.9519 186.379 53.0013 186.402 53.0559C186.426 53.1118 186.438 53.1721 186.438 53.233C186.438 53.2938 186.426 53.3541 186.402 53.4101C186.379 53.4643 186.345 53.5136 186.303 53.5554C186.26 53.5966 186.21 53.6298 186.156 53.6534C186.098 53.6777 186.036 53.6901 185.974 53.6898C185.911 53.6902 185.849 53.6778 185.79 53.6534C185.735 53.6303 185.685 53.5971 185.642 53.5554C185.6 53.512 185.567 53.4611 185.544 53.4053C185.52 53.3493 185.508 53.2891 185.508 53.2282C185.508 53.1673 185.52 53.1071 185.544 53.0511C185.567 52.9966 185.601 52.9472 185.643 52.9058C185.686 52.8634 185.736 52.83 185.792 52.8078C185.85 52.7833 185.912 52.7709 185.975 52.7714M143.1 51.1401C143.1 50.3323 143.63 49.6687 144.495 49.6687C145.321 49.6687 145.879 50.3037 145.879 51.1401C145.879 51.9765 145.321 52.6115 144.495 52.6115C143.63 52.6115 143.1 51.9479 143.1 51.1401ZM146.821 51.1401V48.8413H145.822V49.4013C145.505 48.9875 145.024 48.7279 144.37 48.7279C143.082 48.7279 142.071 49.7381 142.071 51.1412C142.071 52.5443 143.082 53.5545 144.37 53.5545C145.024 53.5545 145.505 53.2947 145.822 52.8811V53.4392H146.82V51.1401H146.821ZM180.587 51.1401C180.587 50.3323 181.116 49.6687 181.981 49.6687C182.809 49.6687 183.366 50.3037 183.366 51.1401C183.366 51.9765 182.809 52.6115 181.981 52.6115C181.116 52.6115 180.587 51.9479 180.587 51.1401ZM184.309 51.1401V46.9961H183.308V49.4013C182.992 48.9875 182.511 48.7279 181.857 48.7279C180.569 48.7279 179.558 49.7381 179.558 51.1412C179.558 52.5443 180.568 53.5545 181.857 53.5545C182.511 53.5545 182.992 53.2947 183.308 52.8811V53.4392H184.309V51.1401ZM159.224 49.6214C159.868 49.6214 160.282 50.0251 160.387 50.7361H158.003C158.109 50.0725 158.512 49.6214 159.224 49.6214M159.244 48.7254C157.897 48.7254 156.955 49.7054 156.955 51.1387C156.955 52.6 157.935 53.552 159.311 53.552C160.003 53.552 160.637 53.3793 161.195 52.908L160.705 52.1674C160.32 52.4754 159.829 52.6482 159.368 52.6482C158.724 52.6482 158.138 52.35 157.994 51.5226H161.406C161.416 51.3983 161.426 51.2728 161.426 51.1384C161.416 49.7057 160.53 48.7251 159.244 48.7251M171.309 51.1384C171.309 50.3306 171.838 49.667 172.703 49.667C173.529 49.667 174.087 50.3021 174.087 51.1384C174.087 51.9748 173.529 52.6098 172.703 52.6098C171.838 52.6098 171.308 51.9462 171.308 51.1384M175.029 51.1384V48.8413H174.03V49.4013C173.712 48.9875 173.233 48.7279 172.579 48.7279C171.291 48.7279 170.28 49.7381 170.28 51.1412C170.28 52.5443 171.29 53.5545 172.579 53.5545C173.233 53.5545 173.712 53.2947 174.03 52.8811V53.4392H175.029V51.1401L175.029 51.1384ZM165.665 51.1384C165.665 52.5325 166.636 53.5517 168.117 53.5517C168.809 53.5517 169.27 53.3977 169.769 53.0038L169.289 52.196C168.914 52.4656 168.52 52.6098 168.085 52.6098C167.287 52.6 166.701 52.0232 166.701 51.1384C166.701 50.2536 167.287 49.6771 168.085 49.667C168.519 49.667 168.913 49.8112 169.289 50.0809L169.769 49.2731C169.27 48.8791 168.808 48.7251 168.117 48.7251C166.636 48.7251 165.665 49.744 165.665 51.1384ZM178.548 48.7251C177.972 48.7251 177.596 48.9947 177.337 49.3985V48.8413H176.346V53.4367H177.347V50.8607C177.347 50.1002 177.673 49.6777 178.327 49.6777C178.541 49.6746 178.753 49.7139 178.952 49.7933L179.26 48.8514C179.038 48.7643 178.75 48.7259 178.548 48.7259M151.762 49.2067C151.281 48.8897 150.618 48.7259 149.888 48.7259C148.723 48.7259 147.974 49.284 147.974 50.1971C147.974 50.9463 148.532 51.4086 149.559 51.5528L150.032 51.62C150.58 51.697 150.838 51.8412 150.838 52.1008C150.838 52.4561 150.474 52.6588 149.791 52.6588C149.099 52.6588 148.599 52.4376 148.262 52.1781L147.793 52.9573C148.341 53.3611 149.033 53.5537 149.782 53.5537C151.11 53.5537 151.879 52.9287 151.879 52.0537C151.879 51.2459 151.273 50.8234 150.273 50.6792L149.802 50.6109C149.37 50.5549 149.023 50.4678 149.023 50.1598C149.023 49.8238 149.35 49.6217 149.898 49.6217C150.485 49.6217 151.052 49.8429 151.331 50.0156L151.763 49.2078L151.762 49.2067ZM164.656 48.7268C164.079 48.7268 163.704 48.9964 163.446 49.4002V48.8413H162.455V53.4367H163.455V50.8607C163.455 50.1002 163.781 49.6777 164.434 49.6777C164.648 49.6746 164.861 49.7139 165.059 49.7933L165.367 48.8514C165.146 48.7643 164.858 48.7259 164.655 48.7259M156.128 48.8413H154.494V47.4472H153.484V48.8413H152.552V49.7547H153.484V51.851C153.484 52.9173 153.898 53.5523 155.08 53.5523C155.514 53.5523 156.013 53.4179 156.33 53.197L156.042 52.3413C155.743 52.5141 155.417 52.6011 155.157 52.6011C154.657 52.6011 154.494 52.2931 154.494 51.832V49.7555H156.128V48.8413ZM141.188 53.4378V50.5538C141.188 49.4677 140.496 48.7369 139.38 48.7271C138.793 48.7173 138.188 48.8998 137.764 49.5447C137.448 49.0351 136.948 48.7271 136.246 48.7271C135.755 48.7271 135.275 48.8713 134.9 49.4094V48.8413H133.9V53.4367H134.908V50.8887C134.908 50.0909 135.35 49.667 136.033 49.667C136.697 49.667 137.033 50.0996 137.033 50.8786V53.4361H138.043V50.8881C138.043 50.0904 138.504 49.6665 139.167 49.6665C139.85 49.6665 140.175 50.0991 140.175 50.878V53.4355L141.188 53.4378Z" fill="white"/>
<path d="M186.466 38.1525V37.4805H186.291L186.089 37.9416L185.887 37.4805H185.712V38.1525H185.836V37.6462L186.025 38.083H186.154L186.343 37.6451V38.1525H186.467H186.466ZM185.356 38.1525V37.5956H185.58V37.4822H185.008V37.5956H185.232V38.1525H185.355H185.356Z" fill="#F79410"/>
<path d="M166.576 41.0324H151.432V13.8164H166.576L166.576 41.0324Z" fill="#FF5F00"/>
<path d="M152.392 27.4221C152.392 21.9013 154.977 16.9834 159.002 13.8141C155.955 11.4115 152.187 10.1076 148.307 10.1133C138.748 10.1133 131 17.8626 131 27.4221C131 36.9815 138.748 44.7308 148.307 44.7308C152.187 44.7366 155.956 43.4327 159.003 41.0301C154.978 37.8613 152.392 32.9431 152.392 27.4221Z" fill="#EB001B"/>
<path d="M187.007 27.4221C187.007 36.9815 179.259 44.7308 169.701 44.7308C165.82 44.7365 162.051 43.4326 159.003 41.0301C163.03 37.8607 165.615 32.9431 165.615 27.4221C165.615 21.901 163.03 16.9834 159.003 13.8141C162.051 11.4116 165.82 10.1077 169.701 10.1133C179.259 10.1133 187.007 17.8626 187.007 27.4221" fill="#F79E1B"/>
</g>
<defs>
<clipPath id="clip0_1891_2281">
<rect width="56" height="43.568" fill="white" transform="translate(131 10.1133)"/>
</clipPath>
</defs>
</svg>
