<svg width="18" height="14" viewBox="0 0 18 14" fill="none" xmlns="http://www.w3.org/2000/svg">
<path d="M2.55335 5.76953H2.55305H1.18782C0.848431 5.76953 0.658918 6.16052 0.868452 6.42627L0.868535 6.42638L6.21815 13.2037L6.21822 13.2038C6.5687 13.6474 7.24072 13.6462 7.59237 13.2046L7.59305 13.2037L17.1307 1.11758C17.131 1.11725 17.1312 1.11692 17.1315 1.11659C17.3452 0.849213 17.1478 0.460938 16.8128 0.460938H15.4476C15.1803 0.460938 14.9258 0.583396 14.7607 0.794893C14.7605 0.795114 14.7603 0.795335 14.7601 0.795556L6.90463 10.7469L3.23968 6.10313C3.1579 5.9993 3.05367 5.91534 2.9348 5.85757L2.82551 6.08241L2.9348 5.85757C2.81593 5.79979 2.68552 5.76969 2.55335 5.76953Z" fill="#111111" stroke="#111111" stroke-width="0.5"/>
</svg>
