<svg width="16" height="16" viewBox="0 0 16 16" fill="none" xmlns="http://www.w3.org/2000/svg">
<path d="M13.5177 2.27037C12.0567 0.806317 10.1141 0 8.04773 0C5.98137 0 4.03875 0.806317 2.57772 2.27037C1.11697 3.73415 0.3125 5.68031 0.3125 7.75026C0.3125 9.82022 1.11697 11.7664 2.57772 13.2302C4.03875 14.6942 5.98137 15.5005 8.04773 15.5005C10.1141 15.5005 12.0567 14.6942 13.5177 13.2302C14.9785 11.7664 15.783 9.82022 15.783 7.75026C15.783 5.68031 14.9785 3.73415 13.5177 2.27037Z" fill="#176666"/>
<path d="M8.04773 0C5.98137 0 4.03875 0.806317 2.57772 2.27037C1.11697 3.73415 0.3125 5.68031 0.3125 7.75026C0.3125 9.82022 1.11697 11.7664 2.57772 13.2302C4.03875 14.6942 5.98137 15.5005 8.04773 15.5005V0Z" fill="#3B9376"/>
<path d="M8.04787 1.93359C4.84554 1.93359 2.24023 4.54388 2.24023 7.75236C2.24023 10.9609 4.84554 13.5712 8.04787 13.5712C11.2502 13.5712 13.8555 10.9609 13.8555 7.75236C13.8555 4.54388 11.2502 1.93359 8.04787 1.93359Z" fill="#E7E3CE"/>
<path d="M8.04787 1.93359C4.84554 1.93359 2.24023 4.54388 2.24023 7.75236C2.24023 10.9609 4.84554 13.5712 8.04787 13.5712V1.93359Z" fill="#F4F2E6"/>
<path d="M8.04549 3.1898C8.32409 3.1898 8.54996 2.96393 8.54996 2.68532V1.95188C8.38366 1.93749 8.21546 1.92969 8.04549 1.92969C7.87552 1.92969 7.70732 1.93749 7.54102 1.95188V2.68532C7.54102 2.96393 7.76689 3.1898 8.04549 3.1898Z" fill="#111111"/>
<path d="M8.04549 12.3047C7.76689 12.3047 7.54102 12.5306 7.54102 12.8092V13.5426C7.70732 13.557 7.87552 13.5648 8.04549 13.5648C8.21546 13.5648 8.38366 13.557 8.54996 13.5426V12.8092C8.54996 12.5306 8.32409 12.3047 8.04549 12.3047Z" fill="#111111"/>
<path d="M13.8314 7.24219H13.109C12.8304 7.24219 12.6045 7.46806 12.6045 7.74666C12.6045 8.02527 12.8304 8.25114 13.109 8.25114H13.8314C13.8457 8.08483 13.8535 7.91664 13.8535 7.74666C13.8535 7.57669 13.8457 7.4085 13.8314 7.24219Z" fill="#111111"/>
<path d="M3.48628 7.74666C3.48628 7.46806 3.26041 7.24219 2.98181 7.24219H2.25937C2.24504 7.4085 2.2373 7.57669 2.2373 7.74666C2.2373 7.91664 2.24504 8.08483 2.25937 8.25114H2.98181C3.26041 8.25114 3.48628 8.02527 3.48628 7.74666Z" fill="#111111"/>
<path d="M9.28902 7.45496H8.57731V5.41463C8.57731 5.13603 8.35144 4.91016 8.07283 4.91016C7.79423 4.91016 7.56836 5.13603 7.56836 5.41463V7.95943C7.56836 8.23804 7.79423 8.46391 8.07283 8.46391H9.28902C9.56762 8.46391 9.79349 8.23804 9.79349 7.95943C9.79349 7.68083 9.56762 7.45496 9.28902 7.45496Z" fill="#111111"/>
</svg>
