<svg width="20" height="21" viewBox="0 0 20 21" fill="none" xmlns="http://www.w3.org/2000/svg">
<circle cx="10" cy="10.5" r="10" fill="#3390EC"/>
<path d="M4.59261 9.98071C4.59261 9.98071 8.86765 8.22623 10.3503 7.60843C10.9187 7.36133 12.8462 6.57055 12.8462 6.57055C12.8462 6.57055 13.7358 6.22462 13.6616 7.06478C13.6369 7.41075 13.4392 8.62158 13.2415 9.93129C12.945 11.7846 12.6237 13.8109 12.6237 13.8109C12.6237 13.8109 12.5743 14.3793 12.1542 14.4782C11.7342 14.577 11.0422 14.1322 10.9187 14.0334C10.8198 13.9592 9.06533 12.8472 8.42284 12.3036C8.24986 12.1553 8.05218 11.8588 8.44754 11.5128C9.33716 10.6973 10.3997 9.68419 11.0422 9.0417C11.3388 8.74515 11.6353 8.05324 10.3997 8.89341C8.64525 10.1043 6.91546 11.241 6.91546 11.241C6.91546 11.241 6.52007 11.4881 5.77874 11.2657C5.03738 11.0433 4.17249 10.7468 4.17249 10.7468C4.17249 10.7468 3.57945 10.3761 4.59261 9.98071Z" fill="white"/>
</svg>
