<svg viewBox="0 0 22 22" fill="none" xmlns="http://www.w3.org/2000/svg">
<path fill-rule="evenodd" clip-rule="evenodd" d="M19.3951 0.722556C19.9158 0.201856 20.76 0.201856 21.2807 0.722556C21.8014 1.24325 21.8014 2.08747 21.2807 2.60817L12.8885 11.0003L21.282 19.3938C21.8027 19.9145 21.8027 20.7587 21.282 21.2794C20.7613 21.8001 19.9171 21.8001 19.3964 21.2794L11.0029 12.8859L2.60946 21.2794C2.08876 21.8001 1.24454 21.8001 0.723837 21.2794C0.203138 20.7587 0.203138 19.9145 0.723837 19.3938L9.11729 11.0003L0.725139 2.60817C0.20444 2.08747 0.20444 1.24325 0.725139 0.722556C1.24584 0.201856 2.09006 0.201856 2.61076 0.722556L11.0029 9.11471L19.3951 0.722556Z" fill="white"/>
</svg>
