<svg width="20" height="21" viewBox="0 0 20 21" fill="none" xmlns="http://www.w3.org/2000/svg">
<g clip-path="url(#clip0_352_213)">
<path d="M10 0.5C7.34784 0.5 4.8043 1.55357 2.92893 3.42893C1.05357 5.3043 0 7.84784 0 10.5C0 13.1522 1.05357 15.6957 2.92893 17.5711C4.8043 19.4464 7.34784 20.5 10 20.5C12.6522 20.5 15.1957 19.4464 17.0711 17.5711C18.9464 15.6957 20 13.1522 20 10.5C20 7.84784 18.9464 5.3043 17.0711 3.42893C15.1957 1.55357 12.6522 0.5 10 0.5V0.5ZM14.175 4.45333C14.7483 4.45333 15.2167 4.92083 15.2167 5.49417C15.2138 5.76444 15.1059 6.02301 14.9159 6.21525C14.7259 6.40749 14.4686 6.51835 14.1984 6.5244C13.9282 6.53046 13.6662 6.43125 13.4678 6.24771C13.2693 6.06418 13.15 5.81071 13.135 5.54083L10.9708 5.085L10.3042 8.2075C11.8242 8.26583 13.2042 8.73417 14.1992 9.4475C14.4558 9.19 14.8075 9.03833 15.205 9.03833C16.0117 9.03833 16.6667 9.69333 16.6667 10.5C16.6667 11.0967 16.3042 11.6108 15.825 11.845C15.8488 11.9882 15.8605 12.1332 15.86 12.2783C15.86 14.5233 13.2517 16.3367 10.0233 16.3367C6.795 16.3367 4.18667 14.5233 4.18667 12.2783C4.18667 12.1258 4.19917 11.9733 4.2225 11.8333C3.96452 11.7189 3.74536 11.5319 3.59165 11.2952C3.43794 11.0585 3.3563 10.7822 3.35667 10.5C3.35667 9.69333 4.01167 9.03833 4.81833 9.03833C5.20417 9.03833 5.56667 9.20167 5.82417 9.44667C6.83 8.71083 8.2225 8.255 9.7775 8.2075L10.515 4.7225C10.5326 4.6554 10.5741 4.59703 10.6317 4.55833C10.6915 4.52349 10.7618 4.51108 10.83 4.52333L13.2517 5.0375C13.3335 4.86196 13.464 4.7136 13.6277 4.61005C13.7914 4.5065 13.9813 4.4521 14.175 4.45333ZM7.70833 10.5C7.13417 10.5 6.66667 10.9683 6.66667 11.5417C6.66667 12.1142 7.13417 12.5817 7.70833 12.5817C8.28083 12.5817 8.74833 12.1142 8.74833 11.5408C8.74833 10.9675 8.28083 10.5 7.7075 10.5H7.70833ZM12.2917 10.5C11.7192 10.5 11.2517 10.9675 11.2517 11.5417C11.2517 12.1142 11.7192 12.5817 12.2925 12.5817C12.8658 12.5817 13.3333 12.1142 13.3333 11.5408C13.3333 10.9683 12.865 10.5 12.2917 10.5ZM7.73667 13.825C7.66467 13.8247 7.59547 13.8528 7.54417 13.9033C7.49353 13.9548 7.46515 14.0241 7.46515 14.0962C7.46515 14.1684 7.49353 14.2377 7.54417 14.2892C8.24583 14.9908 9.61417 15.05 10.0117 15.05C10.4092 15.05 11.7658 15.0033 12.4792 14.2892C12.5279 14.2379 12.557 14.1712 12.5614 14.1006C12.5658 14.0301 12.5453 13.9602 12.5033 13.9033C12.4519 13.8524 12.3824 13.8239 12.31 13.8239C12.2376 13.8239 12.1681 13.8524 12.1167 13.9033C11.6608 14.3475 10.7133 14.5117 10.0233 14.5117C9.33333 14.5117 8.37417 14.3483 7.93 13.9033C7.90459 13.878 7.87443 13.858 7.84125 13.8444C7.80807 13.8308 7.77252 13.824 7.73667 13.8242V13.825Z" fill="white"/>
</g>
<defs>
<clipPath id="clip0_352_213">
<rect width="20" height="20" fill="white" transform="translate(0 0.5)"/>
</clipPath>
</defs>
</svg>
