<svg width="20" height="21" viewBox="0 0 20 21" fill="none" xmlns="http://www.w3.org/2000/svg">
<circle cx="10" cy="10.5" r="10" fill="white"/>
<g clip-path="url(#clip0_352_215)">
<path d="M16.5 6.77925C16.0538 6.975 15.5782 7.10475 15.0825 7.16775C15.5925 6.86325 15.9818 6.38475 16.1647 5.808C15.6893 6.0915 15.1643 6.29175 14.6047 6.4035C14.1532 5.92275 13.5097 5.625 12.8077 5.625C11.4458 5.625 10.3492 6.7305 10.3492 8.08575C10.3492 8.28075 10.3658 8.46825 10.4062 8.64675C8.361 8.547 6.55125 7.56675 5.3355 6.0735C5.12325 6.44175 4.99875 6.86325 4.99875 7.317C4.99875 8.169 5.4375 8.92425 6.0915 9.3615C5.69625 9.354 5.3085 9.23925 4.98 9.0585C4.98 9.066 4.98 9.07575 4.98 9.0855C4.98 10.281 5.83275 11.274 6.951 11.5027C6.75075 11.5575 6.5325 11.5837 6.306 11.5837C6.1485 11.5837 5.9895 11.5748 5.84025 11.5417C6.159 12.516 7.0635 13.2323 8.139 13.2555C7.302 13.9103 6.23925 14.3047 5.08875 14.3047C4.887 14.3047 4.6935 14.2958 4.5 14.271C5.58975 14.9738 6.88125 15.375 8.274 15.375C12.801 15.375 15.276 11.625 15.276 8.3745C15.276 8.26575 15.2723 8.16075 15.267 8.0565C15.7553 7.71 16.1655 7.27725 16.5 6.77925Z" fill="black"/>
</g>
<defs>
<clipPath id="clip0_352_215">
<rect width="12" height="12" fill="white" transform="translate(4.5 4.5)"/>
</clipPath>
</defs>
</svg>
